<svg xmlns="http://www.w3.org/2000/svg" xmlns:xlink="http://www.w3.org/1999/xlink" width="1600" zoomAndPan="magnify" viewBox="0 0 1200 599.999999" height="800" preserveAspectRatio="xMidYMid meet" version="1.0"><defs><filter x="0%" y="0%" width="100%" height="100%" id="2980055c46"><feColorMatrix values="0 0 0 0 1 0 0 0 0 1 0 0 0 0 1 0 0 0 1 0" color-interpolation-filters="sRGB"/></filter><mask id="396ed86ed6"><g filter="url(#2980055c46)"><rect x="-120" width="1440" fill="#000000" y="-60" height="719.999999" fill-opacity="0.42"/></g></mask><clipPath id="d3b613c4ff"><path d="M 0 0.398438 L 1200 0.398438 L 1200 370 L 0 370 Z M 0 0.398438 " clip-rule="nonzero"/></clipPath><clipPath id="bff92528bf"><rect x="0" width="1200" y="0" height="370"/></clipPath><mask id="1dadba262f"><g filter="url(#2980055c46)"><rect x="-120" width="1440" fill="#000000" y="-60" height="719.999999" fill-opacity="0.42"/></g></mask><clipPath id="a8f899a0d3"><path d="M 0.238281 0.160156 L 966 0.160156 L 966 304 L 0.238281 304 Z M 0.238281 0.160156 " clip-rule="nonzero"/></clipPath><clipPath id="f758b308cd"><rect x="0" width="966" y="0" height="304"/></clipPath></defs><rect x="-120" width="1440" fill="#ffffff" y="-60" height="719.999999" fill-opacity="1"/><rect x="-120" width="1440" fill="#262f40" y="-60" height="719.999999" fill-opacity="1"/><path fill="#313c51" d="M 0.0898438 173.433594 C 430.058594 -80.160156 838.238281 294.28125 968.96875 393.386719 C 1099.703125 492.492188 1199.910156 526.085938 1199.910156 526.085938 L 1199.910156 599.996094 L 0.0898438 599.996094 Z M 0.0898438 173.433594 " fill-opacity="1" fill-rule="nonzero"/><path fill="#39465e" d="M 419.164062 599.996094 C 419.164062 392.476562 704.863281 358.832031 881.335938 358.832031 C 1057.804688 358.832031 1199.910156 71.019531 1199.910156 43.710938 L 1199.910156 599.996094 Z M 419.164062 599.996094 " fill-opacity="1" fill-rule="nonzero"/><g mask="url(#396ed86ed6)"><g transform="matrix(1, 0, 0, 1, 0, 230)"><g clip-path="url(#bff92528bf)"><g clip-path="url(#d3b613c4ff)"><path fill="#262f40" d="M 0.0898438 66.535156 C 183.324219 281.929688 337.765625 19.839844 545.046875 1.554688 C 752.28125 -16.730469 1199.910156 237.246094 1199.910156 237.246094 L 1199.910156 369.996094 L 0.0898438 369.996094 Z M 0.0898438 66.535156 " fill-opacity="1" fill-rule="nonzero"/></g></g></g></g><g mask="url(#1dadba262f)"><g transform="matrix(1, 0, 0, 1, 234, 296)"><g clip-path="url(#f758b308cd)"><g clip-path="url(#a8f899a0d3)"><path fill="#262f40" d="M 21.316406 303.996094 C 21.316406 303.996094 -54.324219 131.75 84.328125 25.878906 C 222.980469 -79.996094 590.605469 180.511719 720.859375 174.175781 C 851.113281 167.886719 965.910156 0.535156 965.910156 0.535156 L 965.910156 303.996094 Z M 21.316406 303.996094 " fill-opacity="1" fill-rule="nonzero"/></g></g></g></g></svg>