<svg xmlns="http://www.w3.org/2000/svg" xmlns:xlink="http://www.w3.org/1999/xlink" width="1800" zoomAndPan="magnify" viewBox="0 0 1350 899.99999" height="1200" preserveAspectRatio="xMidYMid meet" version="1.0"><defs><filter x="0%" y="0%" width="100%" height="100%" id="e1f02236e4"><feColorMatrix values="0 0 0 0 1 0 0 0 0 1 0 0 0 0 1 0 0 0 1 0" color-interpolation-filters="sRGB"/></filter><mask id="586519f89f"><g filter="url(#e1f02236e4)"><rect x="-135" width="1620" fill="#000000" y="-89.999999" height="1079.999988" fill-opacity="0.53"/></g></mask><clipPath id="ea469f4844"><path d="M 0 0 L 1350 0 L 1350 900 L 0 900 Z M 0 0 " clip-rule="nonzero"/></clipPath><clipPath id="7ab4b39e23"><rect x="0" width="1350" y="0" height="900"/></clipPath></defs><g mask="url(#586519f89f)"><g transform="matrix(1, 0, 0, 1, 0, 0.000000000000108392)"><g clip-path="url(#7ab4b39e23)"><g clip-path="url(#ea469f4844)"><path fill="#f1f0ee" d="M 1502.984375 120.832031 L 1502.984375 126.242188 C 1093.878906 207.160156 691.71875 329.773438 307.570312 490.816406 C 292.878906 496.972656 278.15625 503.203125 263.464844 509.4375 C 148.597656 558.078125 29.800781 608.363281 -94.800781 629.160156 C -131.320312 635.257812 -168.875 638.890625 -205.183594 642.417969 C -225.183594 644.355469 -245.710938 646.371094 -266.027344 648.757812 L -266.027344 643.425781 C -245.84375 641.066406 -225.5 639.050781 -205.6875 637.140625 C -169.484375 633.640625 -132.035156 630.007812 -95.675781 623.933594 C 28.34375 603.246094 146.820312 553.09375 261.394531 504.554688 C 276.117188 498.324219 290.808594 492.089844 305.527344 485.9375 C 690.339844 324.628906 1093.1875 201.832031 1503.011719 120.859375 Z M 32.480469 743.179688 C 25.558594 738.617188 19.40625 729.757812 21.261719 720.15625 C 23.648438 707.851562 36.910156 702.199219 48.210938 698.648438 L 202.382812 650.191406 C 204.558594 649.5 207.238281 648.625 210.285156 647.589844 C 240.921875 637.378906 274.363281 627.460938 283.277344 639.210938 C 287.679688 645.019531 285.34375 654.515625 276.089844 668.253906 C 239.089844 723.152344 153.609375 752.089844 83.960938 752.089844 C 74.441406 752.089844 65.210938 751.558594 56.429688 750.445312 C 48.183594 749.410156 39.589844 747.820312 32.480469 743.179688 Z M 35.398438 738.75 C 41.898438 743.019531 49.984375 744.316406 57.09375 745.195312 C 128.4375 754.050781 230.789062 726.019531 271.710938 665.28125 C 279.21875 654.167969 281.816406 646.027344 279.058594 642.417969 C 277.253906 640.03125 273.382812 639.078125 268.292969 639.078125 C 252.617188 639.078125 225.457031 648.121094 211.957031 652.628906 C 208.855469 653.664062 206.148438 654.566406 203.976562 655.257812 L 49.800781 703.710938 C 39.90625 706.816406 28.316406 711.617188 26.460938 721.164062 C 25.082031 728.296875 30.121094 735.273438 35.398438 738.722656 Z M -210.570312 483.867188 C -179.882812 486.015625 -150.230469 487.105469 -121.613281 487.105469 C 29.058594 487.105469 151.699219 457.214844 251.398438 396.476562 C 302 365.660156 347.300781 325.980469 391.117188 287.605469 C 409.203125 271.742188 427.929688 255.378906 446.761719 239.835938 C 477.339844 214.585938 633.953125 85.953125 752.058594 0.445312 L 743.039062 0.445312 C 625.546875 86.007812 473.496094 210.902344 443.390625 235.753906 C 424.507812 251.320312 405.757812 267.738281 387.640625 283.625 C 343.984375 321.84375 298.84375 361.390625 248.636719 391.941406 C 130.957031 463.632812 -19.132812 491.984375 -210.199219 478.589844 L -217.996094 478.035156 C -233.722656 476.921875 -249.875 475.78125 -266.054688 475.167969 L -266.054688 480.472656 C -250.035156 481.085938 -234.015625 482.199219 -218.367188 483.3125 Z M 663.871094 530.203125 C 634.722656 524.183594 618.359375 511 618.996094 494.054688 C 619.632812 477.078125 636.660156 467.105469 651.40625 460.316406 C 703.972656 436.128906 758.316406 411.089844 815.660156 396.980469 C 858.785156 386.347656 906.496094 381.175781 961.503906 381.175781 C 961.636719 381.175781 961.742188 381.175781 961.875 381.175781 C 967.023438 381.175781 974.847656 380.828125 983.890625 380.433594 C 1035.820312 378.125 1087.777344 377.144531 1102.683594 392.421875 C 1109.421875 399.316406 1111.59375 407.777344 1109.128906 417.511719 C 1097.195312 464.773438 975.828125 531.636719 948.617188 540.148438 C 914.667969 550.757812 879.761719 554.84375 844.886719 554.84375 C 782.984375 554.84375 721 542.03125 663.871094 530.230469 Z M 664.933594 525.003906 C 753.625 543.332031 854.117188 564.097656 947.023438 535.058594 C 970.734375 527.65625 1092.527344 461.539062 1103.984375 416.183594 C 1106 408.226562 1104.328125 401.675781 1098.890625 396.105469 C 1084.382812 381.253906 1019.164062 384.144531 984.128906 385.710938 C 975.03125 386.109375 967.15625 386.480469 961.902344 386.480469 L 961.53125 386.480469 C 906.949219 386.480469 859.660156 391.597656 816.933594 402.128906 C 760.09375 416.132812 705.960938 441.0625 653.632812 465.144531 C 640.265625 471.296875 624.855469 480.183594 624.328125 494.265625 C 623.558594 514.289062 652.492188 522.433594 664.984375 525.003906 Z M -29.289062 527.5 C 54.203125 515.882812 160.265625 489.542969 254.394531 457.027344 C 334.675781 429.285156 444.320312 384.011719 510.785156 325.691406 C 567.597656 275.855469 607.300781 231.136719 642.335938 191.699219 C 702.964844 123.429688 750.863281 69.511719 854.144531 22.40625 C 871.488281 14.503906 889.949219 7.289062 910.34375 0.421875 L 894.246094 0.421875 C 879.257812 5.832031 865.28125 11.507812 851.96875 17.578125 C 747.683594 65.132812 699.464844 119.425781 638.410156 188.171875 C 603.480469 227.503906 563.910156 272.0625 507.335938 321.683594 C 391.035156 423.691406 117.960938 501.664062 -29.980469 522.246094 C -71.75 528.054688 -115.644531 530.917969 -158.082031 533.679688 C -193.699219 536.011719 -230.382812 538.398438 -266 542.535156 L -266 547.894531 C -230.300781 543.730469 -193.488281 541.316406 -157.738281 538.980469 C -115.195312 536.199219 -71.222656 533.332031 -29.261719 527.5 Z M 1444.953125 204.695312 C 1445.695312 205.625 1445.828125 206.894531 1445.300781 207.957031 C 1431.773438 234.984375 1314.253906 262.910156 1292.796875 265.511719 C 1279.269531 267.15625 1265.449219 270.230469 1252.082031 273.230469 C 1241.632812 275.5625 1230.8125 277.976562 1220.203125 279.671875 C 1219.410156 279.804688 1218.613281 279.859375 1217.871094 279.859375 C 1211.34375 279.859375 1207.101562 275.164062 1205.828125 270.335938 C 1204.398438 264.953125 1206.226562 257.898438 1213.652344 255.113281 L 1245.664062 243.019531 C 1269.164062 234.136719 1293.484375 224.957031 1318.390625 218.804688 C 1330.007812 215.941406 1359.5 211.140625 1388.488281 207.425781 C 1441.71875 200.609375 1443.761719 203.15625 1444.980469 204.667969 Z M 1438.878906 208.167969 C 1422.332031 207.425781 1343.003906 218.195312 1319.636719 223.976562 C 1295.050781 230.050781 1270.886719 239.175781 1247.523438 248.007812 L 1215.507812 260.101562 C 1210.839844 261.851562 1210.125 265.988281 1210.921875 269.011719 C 1211.714844 272.035156 1214.421875 275.269531 1219.328125 274.476562 C 1229.804688 272.777344 1240.546875 270.390625 1250.917969 268.082031 C 1264.417969 265.085938 1278.339844 261.984375 1292.132812 260.285156 C 1316.160156 257.339844 1420.792969 231.03125 1438.855469 208.195312 Z M 1083.003906 280.867188 C 1084.277344 291.265625 1092.023438 302.429688 1106.503906 303.996094 C 1117.828125 305.214844 1130.109375 305.824219 1143.316406 305.824219 C 1190.738281 305.824219 1249.722656 298.027344 1316.453125 282.804688 C 1378.964844 268.5625 1441.640625 251.613281 1503.011719 232.515625 L 1503.011719 226.972656 C 1441.265625 246.253906 1378.171875 263.308594 1315.261719 277.65625 C 1230.519531 296.964844 1158.539062 304.285156 1107.085938 298.769531 C 1094.726562 297.445312 1089.238281 287.976562 1088.28125 280.285156 C 1087.355469 272.59375 1090.378906 262.089844 1102.046875 257.847656 C 1225.695312 212.730469 1374.75 184.324219 1502.984375 181.277344 L 1502.984375 175.972656 C 1374.164062 179.046875 1224.421875 207.558594 1100.21875 252.886719 C 1086.558594 257.871094 1081.730469 270.578125 1083.003906 280.972656 Z M 1184.1875 326.722656 C 1060.300781 330.359375 932.171875 334.125 811.203125 368.207031 C 725.617188 392.3125 644.03125 431.515625 565.15625 469.441406 C 543.992188 479.625 522.082031 490.15625 500.46875 500.207031 C 257.46875 613.296875 -0.328125 691.351562 -266.054688 732.332031 L -266.054688 737.6875 C 0.441406 696.65625 259.007812 618.417969 502.667969 504.980469 C 524.3125 494.902344 546.246094 484.371094 567.4375 474.1875 C 646.128906 436.367188 727.5 397.246094 812.636719 373.296875 C 932.992188 339.402344 1060.777344 335.664062 1184.347656 332.027344 C 1233.785156 330.570312 1284.917969 329.085938 1334.914062 325.664062 C 1396.628906 321.445312 1451.742188 314.074219 1502.984375 303.121094 L 1502.984375 297.683594 C 1451.664062 308.714844 1396.445312 316.140625 1334.542969 320.359375 C 1284.652344 323.753906 1233.570312 325.265625 1184.1875 326.722656 Z M -198.820312 182.125 C -167.285156 182.125 -140.894531 174.351562 -121.164062 159.078125 C -108.035156 148.890625 -97.902344 135.472656 -88.117188 122.503906 C -81.113281 113.246094 -73.898438 103.671875 -65.679688 95.421875 C -45.546875 75.238281 -19 62.480469 6.675781 50.121094 C 15.691406 45.800781 25.003906 41.316406 33.941406 36.570312 C 53.273438 26.304688 71.839844 14.160156 89.210938 0.445312 L 80.539062 0.445312 C 64.972656 12.277344 48.527344 22.832031 31.445312 31.875 C 22.613281 36.570312 13.332031 41.027344 4.394531 45.324219 C -21.675781 57.867188 -48.625 70.808594 -69.417969 91.628906 C -77.90625 100.117188 -85.25 109.851562 -92.359375 119.265625 C -101.933594 131.945312 -111.851562 145.074219 -124.425781 154.832031 C -158.929688 181.566406 -207.996094 179.046875 -243.058594 172.207031 C -250.832031 170.695312 -258.523438 168.917969 -266.054688 167.085938 L -266.054688 172.550781 C -258.839844 174.273438 -251.492188 175.972656 -244.066406 177.402344 C -228.046875 180.53125 -212.929688 182.070312 -198.820312 182.070312 Z M -164.792969 119.851562 C -99.070312 101.972656 -51.277344 50.363281 -5.074219 0.445312 L -12.316406 0.445312 C -56.976562 48.664062 -103.5 97.675781 -166.199219 114.703125 C -199.164062 123.667969 -233.351562 122.847656 -266.082031 119.664062 L -266.082031 124.996094 C -252.6875 126.296875 -239.054688 127.171875 -225.316406 127.171875 C -205.160156 127.171875 -184.789062 125.234375 -164.816406 119.796875 Z M -144.183594 33.757812 C -129.492188 23.148438 -115.300781 12.59375 -103.367188 0.472656 L -110.953125 0.472656 C -121.800781 10.789062 -134.34375 20.125 -147.285156 29.460938 C -174.472656 49.0625 -202.613281 69.351562 -233.988281 83.039062 C -244.703125 87.703125 -255.445312 91.339844 -266.054688 93.9375 L -266.054688 99.402344 C -254.753906 96.695312 -243.324219 92.875 -231.894531 87.890625 C -199.960938 73.964844 -171.609375 53.519531 -144.183594 33.757812 Z M -184.179688 3.097656 C -183.542969 2.25 -182.933594 1.320312 -182.324219 0.445312 L -188.847656 0.445312 C -209.746094 28.347656 -237.753906 45.828125 -265.734375 48.371094 C -265.84375 48.371094 -265.949219 48.371094 -266.054688 48.371094 L -266.054688 53.675781 C -265.789062 53.675781 -265.523438 53.675781 -265.230469 53.625 C -235.578125 50.890625 -206.035156 32.484375 -184.179688 3.074219 Z M -219.242188 858.894531 C -233.828125 849.929688 -251.441406 851.175781 -266.054688 857.144531 L -266.054688 862.925781 C -252.449219 856.773438 -235.6875 855.023438 -222.027344 863.402344 C -210.621094 870.40625 -203.433594 883.667969 -202.160156 899.554688 L -196.855469 899.554688 C -198.183594 881.785156 -206.300781 866.851562 -219.242188 858.894531 Z M 360.21875 197.375 C 346.054688 211.246094 325.976562 235.0625 315.449219 250.5 C 312.847656 254.292969 309.480469 258.960938 305.898438 263.917969 C 300.914062 270.816406 295.265625 278.613281 289.960938 286.515625 C 284.363281 294.871094 287.121094 303.703125 292.320312 308.769531 C 295.421875 311.792969 299.828125 313.914062 304.625 313.914062 C 307.890625 313.914062 311.363281 312.933594 314.707031 310.570312 C 353.136719 283.386719 395.863281 248.589844 408.039062 238.5625 C 435.804688 215.726562 463.546875 192.867188 491.316406 170.058594 L 495.082031 166.953125 C 529.378906 138.734375 564.835938 109.558594 599.078125 80.066406 C 626.238281 56.699219 652.601562 33.253906 681.746094 7.210938 L 689.308594 0.472656 L 681.324219 0.472656 L 678.195312 3.257812 C 649.046875 29.277344 622.734375 52.722656 595.578125 76.0625 C 561.390625 105.5 525.957031 134.675781 491.6875 162.871094 L 487.921875 165.972656 C 460.152344 188.78125 432.386719 211.644531 404.640625 234.480469 C 392.496094 244.476562 349.902344 279.167969 311.628906 306.25 C 305.503906 310.570312 299.402344 308.292969 296.035156 305.003906 C 292.664062 301.738281 290.226562 295.691406 294.390625 289.511719 C 299.640625 281.6875 305.261719 273.917969 310.222656 267.074219 C 313.828125 262.089844 317.226562 257.394531 319.851562 253.550781 C 330.195312 238.351562 349.980469 214.878906 363.929688 201.21875 C 403.078125 162.921875 443.550781 123.296875 486.4375 86.457031 C 523.144531 54.871094 561.175781 26.015625 599.609375 0.527344 L 590.058594 0.527344 C 553.699219 25.03125 517.734375 52.535156 482.988281 82.453125 C 439.996094 119.425781 399.445312 159.101562 360.246094 197.453125 Z M 781.738281 483.84375 C 777.574219 461.589844 787.332031 434.273438 818.628906 426.792969 C 877.003906 412.867188 917.476562 411.066406 942.355469 421.277344 C 957.234375 427.375 964.132812 435.652344 962.882812 445.941406 C 958.878906 478.777344 866.792969 518.71875 837.964844 522.964844 L 836.238281 523.203125 C 833.480469 523.574219 830.828125 523.757812 828.257812 523.757812 C 801.496094 523.757812 785.476562 503.917969 781.710938 483.84375 Z M 786.960938 482.859375 C 790.648438 502.460938 807.410156 521.824219 835.550781 517.949219 L 837.222656 517.710938 C 868.171875 513.148438 954.160156 473.898438 957.632812 445.304688 C 958.5625 437.695312 952.753906 431.273438 940.367188 426.183594 C 916.867188 416.554688 876.34375 418.519531 819.875 431.964844 C 791.949219 438.621094 783.222656 463.023438 786.960938 482.859375 Z M 819.027344 472.226562 C 815.792969 462.386719 820.988281 451.511719 830.855469 447.507812 C 847.671875 440.691406 867.058594 440.742188 887.109375 441.433594 C 901.722656 441.9375 909.546875 444.855469 911.058594 450.371094 C 912.464844 455.464844 908.140625 461.007812 897.480469 467.824219 C 881.886719 477.796875 860.773438 483.445312 839.289062 483.445312 C 838.707031 483.445312 838.097656 483.445312 837.511719 483.445312 C 833.296875 483.390625 828.867188 482.992188 825.179688 480.605469 C 822.289062 478.722656 820.222656 475.914062 819.027344 472.253906 Z M 824.066406 470.582031 C 824.890625 473.101562 826.214844 474.90625 828.070312 476.125 C 830.484375 477.6875 833.613281 478.0625 837.566406 478.113281 C 858.652344 478.433594 879.417969 473.046875 894.589844 463.339844 C 906.3125 455.863281 906.074219 452.386719 905.886719 451.75 C 905.4375 450.105469 900.929688 447.214844 886.871094 446.710938 C 882.019531 446.550781 877.191406 446.417969 872.46875 446.417969 C 858.226562 446.417969 844.699219 447.585938 832.820312 452.414062 C 825.523438 455.382812 821.679688 463.339844 824.039062 470.554688 Z M -109.441406 421.328125 C -66.949219 426.421875 -23.824219 431.566406 18.210938 431.566406 C 68.871094 431.566406 117.882812 424.0625 162.148438 399.871094 C 230.46875 362.53125 271.765625 293.652344 311.707031 227.027344 C 327.886719 200.054688 344.621094 172.125 362.894531 146.742188 C 402.175781 92.1875 453.734375 43.015625 516.140625 0.445312 L 506.753906 0.445312 C 446.707031 42.351562 396.925781 90.464844 358.625 143.640625 C 340.21875 169.207031 323.429688 197.214844 307.199219 224.296875 C 267.628906 290.308594 226.703125 358.550781 159.65625 395.203125 C 80.167969 438.648438 -15.867188 427.164062 -108.75 416.050781 C -161.210938 409.765625 -215.316406 403.320312 -266 406.847656 L -266 412.152344 C -215.714844 408.597656 -161.742188 415.015625 -109.386719 421.304688 Z M 825.152344 147.113281 C 805.234375 158.335938 802.265625 178.941406 808.152344 194.378906 C 813.191406 207.585938 825.605469 219.28125 843.082031 219.28125 C 846 219.28125 849.078125 218.964844 852.285156 218.246094 C 879.046875 212.332031 905.542969 201.246094 930.234375 190.160156 C 1029.003906 145.710938 1127.800781 101.285156 1226.570312 56.832031 L 1351.941406 0.445312 L 1338.996094 0.445312 L 1224.339844 52.03125 C 1125.574219 96.457031 1026.804688 140.910156 928.007812 185.359375 C 903.605469 196.339844 877.375 207.292969 851.09375 213.101562 C 831.863281 217.347656 818.152344 205.808594 813.058594 192.519531 C 807.96875 179.207031 810.539062 161.4375 827.699219 151.757812 C 850.800781 138.734375 877.613281 129.238281 903.128906 120.9375 L 1273.777344 0.445312 L 1256.621094 0.445312 L 901.539062 115.871094 C 875.757812 124.28125 848.652344 133.855469 825.128906 147.113281 Z M 682.941406 211.40625 C 668.859375 226.152344 665.410156 246.8125 673.921875 265.351562 C 682.011719 282.9375 698.617188 293.570312 717.710938 293.570312 C 718.613281 293.570312 719.515625 293.570312 720.445312 293.492188 C 780.597656 290.335938 842.84375 264.6875 903.050781 239.890625 C 921.507812 232.304688 938.933594 225.117188 956.09375 218.671875 C 969.089844 213.792969 982.035156 208.9375 994.921875 204.113281 C 1162.808594 141.175781 1321.492188 81.605469 1476.222656 0.445312 L 1464.714844 0.445312 C 1313.136719 79.058594 1157.503906 137.488281 993.039062 199.152344 C 980.152344 203.980469 967.207031 208.832031 954.210938 213.710938 C 936.972656 220.183594 919.519531 227.371094 901.035156 234.984375 C 841.253906 259.597656 779.402344 285.058594 720.152344 288.1875 C 702.117188 289.140625 686.257812 279.515625 678.722656 263.125 C 671.140625 246.625 674.214844 228.195312 686.761719 215.066406 C 731.316406 168.386719 792.1875 136.160156 855.894531 104.574219 C 927.160156 69.246094 1007.574219 29.410156 1090.667969 0.445312 L 1074.863281 0.445312 C 996.488281 28.984375 920.925781 66.40625 853.53125 99.824219 C 789.375 131.652344 728.054688 164.117188 682.914062 211.40625 Z M 835.949219 809.828125 L 840.882812 807.070312 C 860.507812 796.167969 878.039062 782.113281 894.988281 768.53125 C 920.847656 747.820312 945.273438 728.21875 974.582031 721.351562 C 1022.71875 710.023438 1078.441406 658.199219 1097.195312 626.054688 C 1099.898438 621.414062 1097.804688 618.683594 1096.769531 617.726562 C 1086.769531 608.496094 1033.300781 628.257812 964.394531 676.289062 C 924.242188 704.269531 829.132812 759.117188 791.230469 759.117188 C 780.515625 759.117188 767.890625 766.808594 753.25 775.695312 C 736.117188 786.117188 716.730469 797.894531 694 802.164062 C 670.421875 806.59375 653.6875 820.941406 635.96875 836.164062 C 634.085938 837.78125 632.203125 839.402344 630.292969 841.019531 C 614.117188 854.757812 602.207031 870.035156 594.941406 886.398438 C 593.324219 890.03125 591.570312 894.804688 590.828125 899.578125 L 596.1875 899.578125 C 596.769531 896.316406 597.988281 892.578125 599.765625 888.574219 C 606.714844 872.925781 618.121094 858.285156 633.6875 845.078125 C 635.597656 843.457031 637.507812 841.8125 639.390625 840.195312 C 656.550781 825.476562 672.757812 811.550781 694.929688 807.386719 C 718.613281 802.960938 739.328125 790.359375 755.957031 780.230469 C 769.90625 771.742188 781.949219 764.421875 791.179688 764.421875 C 833.90625 764.421875 935.273438 702.996094 967.367188 680.636719 C 1036.617188 632.367188 1080.40625 618.496094 1091.730469 621.070312 C 1092.765625 621.308594 1093.109375 621.625 1093.160156 621.679688 C 1093.1875 621.757812 1093.160156 622.316406 1092.578125 623.375 C 1074.730469 653.984375 1019.402344 705.355469 973.335938 716.203125 C 942.859375 723.367188 917.980469 743.3125 891.644531 764.421875 C 874.855469 777.871094 857.511719 791.765625 838.28125 802.457031 L 833.324219 805.238281 C 808.738281 819.03125 775.027344 837.941406 711.71875 848.65625 C 689.066406 852.476562 648.25 883.109375 626.316406 899.578125 C 626.316406 899.578125 635.175781 899.578125 635.175781 899.578125 C 657.53125 882.871094 693.019531 857.199219 712.644531 853.882812 C 776.855469 843.007812 812.421875 823.0625 835.949219 809.855469 Z M 989.433594 811.84375 C 1005.214844 793.4375 1018.847656 776.675781 1030.859375 761.902344 C 1060.804688 725.117188 1082.445312 698.539062 1107.058594 683.398438 C 1123.238281 673.449219 1145.117188 666.847656 1168.273438 659.84375 C 1209.222656 647.484375 1251.554688 634.703125 1264.019531 601.441406 C 1276.035156 569.378906 1328.574219 528.320312 1384.21875 484.824219 C 1402.148438 470.820312 1420.6875 456.3125 1438.773438 441.460938 C 1443.152344 437.878906 1444.132812 432.019531 1441.214844 427.21875 C 1438.242188 422.335938 1432.488281 420.535156 1427.238281 422.816406 L 850.402344 674.378906 C 843.640625 676.605469 836.875 678.808594 830.113281 681.035156 C 765.824219 702.042969 699.332031 723.738281 641.726562 760.65625 C 584.464844 797.335938 543.140625 846.507812 524.65625 899.578125 L 530.277344 899.578125 C 548.660156 848.3125 588.945312 800.785156 644.589844 765.136719 C 701.640625 728.589844 767.785156 707 831.757812 686.101562 C 838.546875 683.902344 845.3125 681.671875 852.285156 679.363281 L 1429.359375 427.722656 C 1432.804688 426.210938 1435.484375 428.011719 1436.707031 430.027344 C 1437.898438 431.992188 1438.269531 435.09375 1435.433594 437.402344 C 1417.371094 452.226562 1398.859375 466.683594 1380.957031 480.6875 C 1322.289062 526.542969 1271.605469 566.167969 1259.058594 599.613281 C 1247.523438 630.40625 1206.4375 642.816406 1166.734375 654.804688 C 1143.234375 661.886719 1121.035156 668.597656 1104.273438 678.914062 C 1078.894531 694.535156 1057.011719 721.402344 1026.75 758.585938 C 1014.734375 773.332031 1001.128906 790.070312 985.402344 808.421875 C 954.238281 844.8125 905.4375 876.214844 843.957031 899.578125 L 858.464844 899.578125 C 915.382812 876.371094 959.410156 846.933594 989.433594 811.871094 Z M 899.230469 803.859375 C 924.425781 781.238281 944.34375 763.359375 980.546875 745.324219 C 1029.667969 720.847656 1066.507812 689.097656 1102.125 658.414062 C 1137.507812 627.9375 1174.082031 596.402344 1222.617188 572.214844 C 1240.335938 563.382812 1258.742188 553.488281 1271.628906 538.371094 C 1276.910156 532.191406 1288.632812 517.15625 1283.777344 510.734375 C 1279.480469 505.058594 1267.203125 510.894531 1252.800781 518.453125 C 1250.863281 519.460938 1249.191406 520.335938 1248.316406 520.734375 C 1197.421875 543.199219 1146.523438 565.664062 1095.601562 588.15625 C 1073.507812 597.886719 1051.414062 607.648438 1029.324219 617.410156 L 1008.714844 626.507812 C 941.800781 656.027344 881.433594 682.707031 820.59375 710.289062 C 775.558594 730.6875 728.691406 752.300781 681.351562 774.554688 C 655.359375 786.808594 623 802.03125 602.261719 828.101562 C 588.019531 846.03125 579.078125 868.285156 573.5625 899.578125 L 578.945312 899.578125 C 584.304688 869.664062 592.871094 848.445312 606.425781 831.417969 C 626.394531 806.328125 658.117188 791.367188 683.628906 779.355469 C 730.972656 757.101562 777.785156 735.484375 822.820312 715.117188 C 883.636719 687.558594 943.972656 660.878906 1010.890625 631.359375 L 1031.496094 622.261719 C 1053.589844 612.503906 1075.683594 602.742188 1097.777344 593.007812 C 1148.699219 570.515625 1199.597656 548.054688 1250.492188 525.589844 C 1251.527344 525.136719 1253.199219 524.261719 1255.292969 523.148438 C 1273.117188 513.757812 1278.339844 512.964844 1279.585938 513.945312 C 1280.886719 515.667969 1275.953125 525.21875 1267.652344 534.949219 C 1255.398438 549.300781 1237.550781 558.902344 1220.308594 567.492188 C 1171.191406 591.972656 1134.351562 623.722656 1098.730469 654.40625 C 1063.351562 684.882812 1026.777344 716.417969 978.242188 740.605469 C 941.375 758.984375 921.246094 777.046875 895.757812 799.960938 C 886.289062 808.449219 876.5 817.253906 864.859375 826.960938 C 848.546875 840.566406 812.398438 849.425781 777.464844 857.992188 C 741.660156 866.773438 704.664062 875.84375 687.371094 890.457031 C 683.628906 893.640625 679.757812 896.664062 675.886719 899.632812 L 684.507812 899.632812 C 686.628906 897.960938 688.722656 896.265625 690.792969 894.515625 C 707.128906 880.722656 743.519531 871.785156 778.738281 863.164062 C 814.253906 854.4375 850.988281 845.449219 868.253906 831.046875 C 879.976562 821.285156 889.789062 812.453125 899.285156 803.941406 Z M 1302.023438 626.53125 C 1289.929688 662.3125 1256.113281 665.203125 1220.335938 668.253906 C 1187.078125 671.089844 1152.703125 674.035156 1129.761719 701.75 C 1116.078125 718.246094 1102.65625 735.617188 1089.6875 752.40625 C 1047.730469 806.699219 1004.367188 862.820312 945.460938 898.332031 C 944.769531 898.757812 944.054688 899.128906 943.363281 899.554688 L 953.441406 899.554688 C 1010.519531 863.429688 1052.902344 808.6875 1093.878906 755.644531 C 1106.820312 738.882812 1120.214844 721.535156 1133.847656 705.117188 C 1155.382812 679.125 1188.640625 676.289062 1220.789062 673.53125 C 1258.34375 670.320312 1293.828125 667.269531 1307.066406 628.230469 C 1335.417969 544.417969 1401.324219 480.820312 1503.011719 439.019531 L 1503.011719 433.289062 C 1398.699219 475.671875 1331.09375 540.652344 1302.023438 626.53125 Z M 307.386719 775.109375 C 294.097656 765.21875 250.734375 773.996094 203.628906 784.683594 C 193.632812 786.941406 184.984375 788.902344 180 789.699219 C 73.484375 806.539062 -3.617188 830.171875 -69.921875 866.347656 C -88.539062 876.503906 -102.492188 887.644531 -111.535156 899.578125 L -104.691406 899.578125 C -96.074219 889.476562 -83.394531 879.714844 -67.375 871.015625 C -1.601562 835.15625 74.945312 811.710938 180.847656 794.949219 C 185.992188 794.128906 194.292969 792.242188 204.824219 789.855469 C 235.21875 782.960938 291.816406 770.125 304.230469 779.378906 C 324.171875 794.234375 299.164062 863.878906 288.820312 882.976562 C 285.742188 888.652344 282.269531 894.222656 278.476562 899.578125 L 284.921875 899.578125 C 288.023438 894.992188 290.914062 890.296875 293.488281 885.496094 C 303.355469 867.277344 331.890625 793.332031 307.386719 775.109375 Z M 1124.511719 519.621094 C 1028.050781 570.144531 928.300781 622.394531 820.351562 641.066406 C 808.921875 643.054688 797.121094 644.699219 785.714844 646.316406 C 744.527344 652.125 701.929688 658.121094 666.152344 680.160156 C 629.3125 702.863281 604.542969 739.597656 580.617188 775.109375 C 559.242188 806.832031 537.175781 839.613281 506.566406 862.183594 C 490.707031 873.90625 472.59375 882.816406 455.0625 891.4375 C 449.703125 894.0625 444.242188 896.792969 438.804688 899.578125 L 450.550781 899.578125 C 452.832031 898.4375 455.140625 897.300781 457.394531 896.183594 C 475.136719 887.460938 493.464844 878.441406 509.722656 866.453125 C 541.046875 843.324219 563.40625 810.148438 585.019531 778.082031 C 608.652344 743.019531 633.078125 706.761719 668.9375 684.667969 C 703.761719 663.210938 745.800781 657.296875 786.457031 651.570312 C 797.914062 649.953125 809.769531 648.28125 821.28125 646.292969 C 930.023438 627.488281 1030.171875 575.027344 1126.976562 524.316406 C 1139.707031 517.660156 1152.414062 511 1165.117188 504.421875 C 1264.203125 453.15625 1379.761719 398.652344 1503.011719 397.246094 L 1503.011719 391.941406 C 1378.78125 393.375 1262.347656 448.144531 1162.675781 499.703125 C 1149.972656 506.28125 1137.242188 512.9375 1124.511719 519.59375 Z M 1387.136719 546.433594 C 1377.003906 560.570312 1369.921875 576.671875 1363.105469 592.265625 C 1357.429688 605.207031 1351.570312 618.574219 1344.011719 630.617188 C 1316.71875 674.113281 1269.003906 698.9375 1222.882812 722.96875 C 1178.882812 745.882812 1133.394531 769.566406 1104.273438 809.589844 C 1087.167969 833.089844 1076.929688 860.726562 1067.039062 887.460938 C 1065.550781 891.515625 1064.015625 895.546875 1062.503906 899.605469 L 1068.179688 899.605469 C 1069.476562 896.183594 1070.75 892.738281 1072.023438 889.316406 C 1081.785156 862.925781 1091.890625 835.632812 1108.570312 812.71875 C 1136.949219 773.730469 1181.90625 750.3125 1225.347656 727.6875 C 1272.109375 703.339844 1320.457031 678.171875 1348.519531 633.453125 C 1356.289062 621.09375 1362.230469 607.515625 1367.988281 594.414062 C 1374.695312 579.085938 1381.671875 563.25 1391.484375 549.539062 C 1419.441406 510.523438 1466.4375 494 1503.039062 485.25 L 1503.039062 479.8125 C 1465.402344 488.695312 1416.46875 505.617188 1387.164062 546.460938 Z M 1457.3125 636.425781 C 1445.484375 659.738281 1436.707031 685.015625 1428.191406 709.441406 C 1414.851562 747.738281 1401.085938 787.3125 1375.519531 819.058594 C 1352.628906 847.464844 1321.226562 868.285156 1290.886719 888.441406 C 1285.421875 892.074219 1279.828125 895.8125 1274.28125 899.554688 L 1283.75 899.554688 C 1287.121094 897.300781 1290.515625 895.042969 1293.832031 892.84375 C 1324.515625 872.472656 1356.261719 851.390625 1379.683594 822.375 C 1405.808594 789.9375 1419.757812 749.886719 1433.230469 711.191406 C 1441.691406 686.925781 1450.417969 661.832031 1462.085938 638.8125 C 1472.007812 619.1875 1486.300781 600.832031 1503.039062 585.953125 L 1503.039062 578.925781 C 1484.285156 594.734375 1468.265625 614.835938 1457.339844 636.398438 Z M 1405.570312 821.921875 C 1388.726562 845.820312 1375.808594 872.554688 1367.878906 899.554688 L 1373.398438 899.554688 C 1381.195312 873.613281 1393.714844 847.96875 1409.890625 824.972656 C 1437.34375 786.011719 1472.75 754.847656 1502.984375 730.976562 L 1502.984375 724.242188 C 1471.742188 748.640625 1434.371094 781 1405.542969 821.921875 Z M 1447.820312 820.621094 C 1424.132812 846.613281 1410.953125 873.746094 1409.441406 899.554688 L 1414.773438 899.554688 C 1416.308594 875.074219 1428.960938 849.160156 1451.742188 824.175781 C 1465.085938 809.5625 1483.386719 798.238281 1503.039062 792.191406 L 1503.039062 786.648438 C 1481.898438 792.855469 1462.167969 804.921875 1447.84375 820.621094 Z M 55 846.746094 C 26.328125 860.113281 1.714844 880.085938 -22.023438 899.554688 L -13.667969 899.554688 C 8.292969 881.597656 31.128906 863.695312 57.226562 851.546875 C 84.808594 838.710938 216.574219 810.519531 246.304688 839.425781 C 253.464844 846.402344 254.179688 856.136719 248.53125 869.238281 C 243.785156 880.21875 236.941406 890.375 228.242188 899.554688 L 235.402344 899.554688 C 242.960938 890.90625 249.007812 881.4375 253.414062 871.332031 C 259.964844 856.1875 258.824219 844.175781 250.015625 835.609375 C 216.707031 803.199219 82 834.148438 55.023438 846.722656 Z M 1401.777344 617.832031 C 1346.847656 698.515625 1316.136719 719.707031 1283.617188 742.117188 C 1265.238281 754.792969 1246.25 767.898438 1222.035156 792.113281 C 1190.789062 823.355469 1178.378906 839.109375 1159.601562 863.003906 C 1152.09375 872.527344 1143.609375 883.320312 1132.46875 896.929688 C 1131.753906 897.804688 1131.0625 898.679688 1130.347656 899.554688 L 1137.164062 899.554688 C 1148.011719 886.265625 1156.363281 875.65625 1163.738281 866.292969 C 1182.410156 842.558594 1194.742188 826.882812 1225.746094 795.878906 C 1249.644531 771.980469 1268.421875 759.039062 1286.617188 746.492188 C 1319.558594 723.761719 1350.640625 702.308594 1406.125 620.832031 C 1433.707031 580.332031 1447.316406 568.714844 1486.195312 538.105469 C 1491.554688 533.890625 1497.175781 529.964844 1502.957031 526.277344 L 1502.957031 519.992188 C 1496.011719 524.289062 1489.273438 528.929688 1482.90625 533.941406 C 1443.546875 564.921875 1429.757812 576.695312 1401.722656 617.832031 Z M 1417.398438 643.164062 C 1412.78125 653.746094 1408.433594 664.777344 1404.214844 675.441406 C 1388.992188 713.976562 1373.265625 753.839844 1342.417969 780.890625 C 1329.527344 792.21875 1314.199219 800.996094 1299.398438 809.457031 C 1288.816406 815.503906 1277.863281 821.789062 1267.757812 828.976562 C 1240.546875 848.339844 1219.195312 874.355469 1198.5625 899.554688 L 1205.40625 899.554688 C 1224.953125 875.683594 1245.375 851.390625 1270.808594 833.300781 C 1280.703125 826.246094 1291.550781 820.039062 1302.023438 814.046875 C 1317.0625 805.453125 1332.605469 796.539062 1345.894531 784.871094 C 1377.695312 756.941406 1393.6875 716.496094 1409.121094 677.375 C 1413.3125 666.742188 1417.664062 655.761719 1422.222656 645.285156 C 1442.460938 598.816406 1471.449219 565.847656 1502.957031 552.828125 L 1502.957031 547.019531 C 1457.632812 564.230469 1430.101562 613.90625 1417.34375 643.1875 Z M 148.78125 860.460938 C 130.878906 853.589844 108.519531 857.78125 90.40625 871.441406 C 81.253906 878.335938 72.929688 887.617188 64.996094 899.605469 L 71.390625 899.605469 C 78.390625 889.476562 85.578125 881.730469 93.613281 875.683594 C 110.269531 863.136719 130.695312 859.214844 146.898438 865.417969 C 163.050781 871.625 173.050781 886.558594 179.519531 899.605469 L 185.433594 899.605469 C 178.59375 885.230469 167.613281 867.699219 148.808594 860.484375 Z M -190.730469 203.367188 C -190.066406 203.367188 -189.40625 203.367188 -188.742188 203.367188 C -88.832031 202.890625 12.164062 159.632812 81.46875 87.652344 C 107.246094 60.890625 129.101562 30.203125 150.1875 0.445312 L 143.6875 0.445312 C 123.375 29.0625 102.289062 58.398438 77.648438 83.964844 C 9.328125 154.9375 -90.265625 197.585938 -188.769531 198.0625 C -214.363281 198.222656 -240.378906 195.652344 -265.523438 193.15625 C -265.710938 193.15625 -265.867188 193.132812 -266.054688 193.105469 L -266.054688 198.4375 C -241.414062 200.847656 -215.980469 203.367188 -190.730469 203.367188 Z M -177.230469 290.734375 C -167.921875 290.972656 -158.558594 291.132812 -149.171875 291.132812 C -95.117188 291.132812 -39.953125 286.066406 9.246094 262.964844 C 63.378906 237.554688 106.292969 191.671875 144.140625 151.199219 L 260.121094 27.207031 C 268.476562 18.269531 276.859375 9.359375 285.265625 0.445312 L 277.972656 0.445312 C 270.703125 8.136719 263.464844 15.855469 256.222656 23.574219 L 140.242188 147.566406 C 102.710938 187.695312 60.195312 233.179688 6.96875 258.164062 C -49.789062 284.820312 -115.0625 287.019531 -177.125 285.429688 C -186.699219 285.191406 -196.300781 284.84375 -205.929688 284.527344 C -225.660156 283.863281 -245.949219 283.199219 -266.082031 283.226562 L -266.082031 288.53125 C -246.03125 288.53125 -225.820312 289.167969 -206.113281 289.832031 C -196.484375 290.148438 -186.859375 290.496094 -177.257812 290.734375 Z M -202.558594 231.855469 C -173.648438 235.992188 -144.023438 240.207031 -114.453125 240.207031 C -103.390625 240.207031 -92.332031 239.625 -81.324219 238.191406 C 28.554688 224.003906 110.933594 131.707031 163.316406 63.488281 C 173.765625 49.910156 184.242188 35.828125 194.375 22.222656 C 199.785156 14.953125 205.195312 7.6875 210.660156 0.445312 L 204.027344 0.445312 C 199.386719 6.652344 194.746094 12.859375 190.128906 19.066406 C 180.023438 32.671875 169.546875 46.726562 159.125 60.28125 C 107.300781 127.726562 25.902344 219.015625 -81.988281 232.96875 C -121.667969 238.058594 -162.40625 232.25 -201.789062 226.628906 C -209.695312 225.488281 -217.570312 224.375 -225.449219 223.339844 C -240.699219 221.296875 -253.90625 219.972656 -266.027344 219.203125 L -266.027344 224.507812 C -254.117188 225.277344 -241.121094 226.601562 -226.136719 228.589844 C -218.289062 229.625 -210.410156 230.765625 -202.53125 231.878906 Z M -47.855469 330.621094 C 20.441406 308.316406 79.824219 261.480469 132.230469 220.15625 C 178.699219 183.558594 226.757812 145.683594 267.628906 101.125 C 282.296875 85.160156 296.21875 68.078125 309.691406 51.582031 C 323.644531 34.476562 338.070312 16.890625 353.320312 0.445312 L 346.132812 0.445312 C 332.023438 15.960938 318.578125 32.300781 305.582031 48.238281 C 292.160156 64.683594 278.289062 81.683594 263.730469 97.570312 C 223.148438 141.8125 175.277344 179.523438 128.96875 216.019531 C 74.359375 259.066406 17.894531 303.597656 -49.5 325.609375 C -119.492188 348.5 -194.550781 344.496094 -266.027344 335.476562 L -266.027344 340.835938 C -233.695312 344.890625 -200.625 347.914062 -167.601562 347.914062 C -127.183594 347.914062 -86.789062 343.378906 -47.828125 330.648438 Z M 33.039062 344.203125 C 93.667969 324.3125 140.347656 302.136719 179.917969 274.421875 C 241.929688 230.953125 290.011719 170.320312 336.507812 111.707031 C 343.324219 103.113281 350.140625 94.519531 356.980469 85.980469 C 377.007812 61.078125 403.476562 29.195312 432.835938 0.472656 L 425.277344 0.472656 C 397.269531 28.375 372.074219 58.742188 352.84375 82.664062 C 346 91.207031 339.160156 99.800781 332.34375 108.417969 C 286.0625 166.742188 238.242188 227.078125 176.867188 270.097656 C 137.722656 297.523438 91.492188 319.484375 31.367188 339.191406 C -64.617188 370.644531 -164.605469 386.320312 -266.054688 385.921875 L -266.054688 391.253906 C -264.808594 391.253906 -263.585938 391.28125 -262.339844 391.28125 C -161.609375 391.28125 -62.308594 375.472656 33.011719 344.230469 Z M 23.753906 71.234375 C 26.355469 72.296875 27.601562 74.867188 26.9375 77.785156 C 26.488281 79.722656 25.320312 81.550781 24.285156 83.167969 L 12.988281 100.832031 C 11 103.964844 8.71875 107.515625 5.109375 110.726562 C 2.035156 113.457031 -1.785156 115.792969 -5.152344 117.726562 C -7.992188 119.371094 -11.652344 121.917969 -15.921875 124.835938 C -28.46875 133.484375 -43.503906 143.828125 -54.035156 143.828125 C -56.660156 143.828125 -58.996094 143.191406 -60.957031 141.703125 C -62.097656 140.855469 -62.734375 139.421875 -62.867188 137.382812 C -63.398438 129.929688 -57.003906 109.320312 -42.417969 94.734375 C -25.734375 78.050781 -10.246094 76.089844 1.078125 74.683594 C 5.191406 74.152344 8.742188 73.726562 11.632812 72.695312 C 15.773438 71.234375 20.464844 69.910156 23.753906 71.261719 Z M 21.792969 76.140625 C 20.890625 75.796875 18.742188 75.796875 13.410156 77.679688 C 9.964844 78.898438 5.984375 79.402344 1.742188 79.933594 C -9.398438 81.339844 -23.269531 83.089844 -38.652344 98.472656 C -54.035156 113.855469 -58.515625 134.199219 -57.480469 137.671875 C -50.453125 142.207031 -30.746094 128.628906 -18.917969 120.488281 C -14.570312 117.488281 -10.828125 114.917969 -7.832031 113.167969 C -4.703125 111.335938 -1.148438 109.1875 1.554688 106.773438 C 4.632812 104.042969 6.59375 100.964844 8.503906 97.96875 L 19.804688 80.304688 C 20.597656 79.058594 21.5 77.625 21.738281 76.59375 C 21.820312 76.246094 21.765625 76.113281 21.765625 76.113281 Z M -176.039062 812.640625 C -204.546875 813.9375 -236.347656 815.425781 -266.054688 823.539062 L -266.054688 829.03125 C -236.507812 820.730469 -204.46875 819.242188 -175.796875 817.945312 C -159.832031 817.203125 -140.472656 818.023438 -132.355469 831.046875 C -125.273438 842.398438 -130.101562 857.808594 -135.085938 869.953125 C -139.171875 879.898438 -143.707031 889.820312 -148.558594 899.554688 L -142.644531 899.554688 C -138.191406 890.484375 -134 881.226562 -130.207031 871.96875 C -124.714844 858.628906 -119.519531 841.628906 -127.871094 828.234375 C -137.445312 812.878906 -158.664062 811.816406 -176.0625 812.640625 Z M 450.445312 836.21875 C 441.800781 840.886719 431.667969 843.273438 421.484375 843.273438 C 414.164062 843.273438 406.84375 842.054688 400.027344 839.558594 C 386.820312 834.707031 377.03125 825.609375 372.496094 813.914062 C 366.34375 798.160156 369.710938 781.421875 374.378906 762.75 C 386.476562 714.296875 399.179688 671.914062 432.039062 643.71875 C 464.796875 615.632812 513.648438 607.59375 539.851562 605.316406 C 540.808594 605.234375 637.90625 599.902344 643.394531 612 C 654.746094 634.011719 637.375 660.691406 614.699219 672.707031 C 605.417969 677.640625 595.339844 681.089844 585.605469 684.402344 C 573.402344 688.566406 560.804688 692.890625 550.117188 700.078125 C 527.917969 715.011719 515.664062 740.871094 503.78125 765.855469 C 490.734375 793.332031 477.234375 821.738281 450.445312 836.21875 Z M 447.925781 831.550781 C 473.203125 817.890625 485.722656 791.5 499.007812 763.574219 C 511.183594 737.953125 523.78125 711.429688 547.171875 695.675781 C 558.445312 688.089844 571.386719 683.660156 583.90625 679.363281 C 593.453125 676.101562 603.320312 672.734375 612.234375 667.988281 C 632.761719 657.085938 648.25 632.898438 638.648438 614.253906 C 633.503906 608.074219 561.441406 608.710938 540.332031 610.539062 C 514.761719 612.765625 467.128906 620.566406 435.515625 647.699219 C 403.847656 674.855469 391.433594 716.441406 379.550781 763.996094 C 375.125 781.769531 371.886719 797.65625 377.484375 811.949219 C 381.488281 822.214844 390.160156 830.222656 401.910156 834.546875 C 416.789062 840.011719 434.453125 838.84375 447.980469 831.550781 Z M 1108.28125 487.660156 C 1031.363281 532.828125 951.824219 579.5625 862.683594 585.847656 C 811.972656 589.429688 759.804688 579.640625 709.382812 570.171875 C 638.886719 556.9375 565.976562 543.253906 497.710938 566.855469 C 447.050781 584.363281 405.890625 620.351562 366.078125 655.148438 C 336.984375 680.585938 306.90625 706.867188 273.25 725.886719 C 178.699219 779.355469 64.519531 773.785156 -45.890625 768.402344 L -55.015625 767.949219 C -125.085938 764.554688 -198.820312 763.757812 -266.027344 779.753906 L -266.027344 785.1875 C -199.113281 769.0625 -125.378906 769.832031 -55.28125 773.253906 L -46.183594 773.703125 C 64.996094 779.117188 179.945312 784.738281 275.824219 730.5 C 309.929688 711.21875 340.246094 684.75 369.527344 659.128906 C 408.964844 624.675781 449.730469 589.03125 499.40625 571.871094 C 566.375 548.714844 635.359375 561.683594 708.375 575.398438 C 759.140625 584.917969 811.628906 594.785156 863.027344 591.152344 C 953.414062 584.761719 1033.488281 537.734375 1110.957031 492.25 C 1158.964844 464.058594 1208.613281 434.882812 1260.597656 415.335938 C 1339.925781 385.472656 1426.652344 377.671875 1502.984375 373.324219 L 1502.984375 368.019531 C 1426.175781 372.394531 1338.839844 380.21875 1258.742188 410.375 C 1206.359375 430.082031 1156.496094 459.363281 1108.28125 487.660156 Z M 218.375 290.890625 C 221.53125 293.359375 222.699219 297.390625 221.320312 301.183594 C 212.675781 324.839844 194.53125 346.246094 170.292969 361.496094 C 139.871094 380.589844 104.382812 388.386719 73.671875 393.507812 C 49.960938 397.460938 25.746094 400.269531 1.6875 401.914062 C -2.925781 402.234375 -10.324219 403.507812 -18.125 404.859375 C -32.632812 407.378906 -44.832031 409.316406 -53.582031 409.316406 C -60.132812 409.316406 -64.75 408.226562 -66.949219 405.496094 C -68.066406 404.089844 -69.097656 401.625 -67.535156 397.882812 C -60.480469 380.777344 -45.574219 380.484375 -23.03125 380.035156 C 2.804688 379.503906 38.210938 378.8125 86.136719 354.042969 C 95.921875 348.976562 106.054688 344.28125 115.867188 339.746094 C 129.765625 333.300781 144.113281 326.644531 157.585938 318.925781 C 159.363281 317.917969 162.46875 316.273438 166.417969 314.207031 C 177.238281 308.53125 195.328125 299.0625 207.820312 290.601562 C 211.109375 288.371094 215.273438 288.503906 218.402344 290.945312 Z M 215.113281 295.082031 C 214.609375 294.683594 212.832031 293.542969 210.765625 294.949219 C 198.035156 303.597656 179.757812 313.144531 168.859375 318.875 C 164.960938 320.914062 161.882812 322.535156 160.210938 323.488281 C 146.554688 331.339844 132.074219 338.050781 118.09375 344.519531 C 108.335938 349.054688 98.257812 353.722656 88.574219 358.738281 C 39.535156 384.066406 1.953125 384.808594 -22.925781 385.3125 C -44.832031 385.761719 -56.898438 386 -62.65625 399.898438 C -63.105469 400.988281 -63.160156 401.757812 -62.8125 402.152344 C -59.257812 406.582031 -34.0625 402.234375 -19.023438 399.609375 C -10.722656 398.175781 -3.5625 396.929688 1.34375 396.585938 C 25.214844 394.964844 49.269531 392.15625 72.796875 388.257812 C 102.976562 383.242188 137.828125 375.605469 167.480469 356.984375 C 190.738281 342.371094 208.113281 321.898438 216.359375 299.351562 C 217.050781 297.445312 216.203125 295.90625 215.140625 295.082031 Z M 472.59375 731.695312 C 464.183594 756.917969 429.625 802.507812 412.519531 802.507812 C 412.042969 802.507812 411.589844 802.480469 411.140625 802.402344 C 405.570312 801.527344 402.707031 796.25 402.652344 786.753906 C 402.28125 727.34375 426.578125 691.378906 447.023438 671.699219 C 473.652344 646.054688 504.976562 636.769531 523.726562 636.609375 C 523.886719 636.609375 524.074219 636.609375 524.230469 636.609375 C 540.648438 636.609375 550.886719 643.082031 550.992188 653.558594 C 551.179688 673.425781 533.355469 683.15625 514.472656 693.5 C 496.941406 703.074219 478.824219 712.996094 472.566406 731.71875 Z M 467.554688 730.023438 C 474.449219 709.308594 494.367188 698.433594 511.953125 688.832031 C 530.144531 678.886719 545.875 670.292969 545.714844 653.613281 C 545.636719 644.992188 534.628906 641.941406 524.207031 641.941406 C 524.074219 641.941406 523.914062 641.941406 523.78125 641.941406 C 487.207031 642.234375 407.292969 679.125 407.957031 786.753906 C 407.984375 791.234375 408.699219 796.699219 411.988281 797.203125 C 423.710938 799.058594 458.5625 757.023438 467.554688 730.050781 Z M 467.554688 730.023438 " fill-opacity="1" fill-rule="nonzero"/></g></g></g></g></svg>