<svg xmlns="http://www.w3.org/2000/svg" xmlns:xlink="http://www.w3.org/1999/xlink" width="1600" zoomAndPan="magnify" viewBox="0 0 1200 599.999999" height="800" preserveAspectRatio="xMidYMid meet" version="1.2"><defs><clipPath id="bca3bbeba6"><path d="M 0 0 L 1200 0 L 1200 258 L 0 258 Z M 0 0 "/></clipPath><clipPath id="a5ca0af381"><path d="M -188.695312 -916.332031 L 1758.046875 -21.023438 L 1250.695312 1082.152344 L -696.046875 186.84375 Z M -188.695312 -916.332031 "/></clipPath><clipPath id="3260c4090d"><path d="M -696.132812 187.035156 L 1250.609375 1082.34375 L 1757.960938 -20.832031 L -188.78125 -916.140625 Z M -696.132812 187.035156 "/></clipPath><clipPath id="ef928d1aac"><path d="M 458 0 L 1200 0 L 1200 600 L 458 600 Z M 458 0 "/></clipPath><clipPath id="04a3ebb250"><path d="M -188.695312 -916.332031 L 1758.046875 -21.023438 L 1250.695312 1082.152344 L -696.046875 186.84375 Z M -188.695312 -916.332031 "/></clipPath><clipPath id="4eff774eb8"><path d="M -696.132812 187.035156 L 1250.609375 1082.34375 L 1757.960938 -20.832031 L -188.78125 -916.140625 Z M -696.132812 187.035156 "/></clipPath><clipPath id="c1da3ffb74"><path d="M 0 0 L 1200 0 L 1200 579 L 0 579 Z M 0 0 "/></clipPath><clipPath id="adaed1d038"><path d="M -188.695312 -916.332031 L 1758.046875 -21.023438 L 1250.695312 1082.152344 L -696.046875 186.84375 Z M -188.695312 -916.332031 "/></clipPath><clipPath id="62296263d2"><path d="M -696.132812 187.035156 L 1250.609375 1082.34375 L 1757.960938 -20.832031 L -188.78125 -916.140625 Z M -696.132812 187.035156 "/></clipPath><filter x="0%" y="0%" width="100%" filterUnits="objectBoundingBox" id="0e3525c84a" height="100%"><feColorMatrix values="0 0 0 0 1 0 0 0 0 1 0 0 0 0 1 0 0 0 1 0" type="matrix" in="SourceGraphic"/></filter><clipPath id="acfb40c14e"><path d="M 0 0 L 1200 0 L 1200 211 L 0 211 Z M 0 0 "/></clipPath><clipPath id="ff857f3a68"><path d="M -188.695312 -916.332031 L 1758.046875 -21.023438 L 1250.695312 1082.152344 L -696.046875 186.84375 Z M -188.695312 -916.332031 "/></clipPath><clipPath id="3c95b0a645"><path d="M -696.132812 187.035156 L 1250.609375 1082.34375 L 1757.960938 -20.832031 L -188.78125 -916.140625 Z M -696.132812 187.035156 "/></clipPath><clipPath id="ccdabf4ecc"><rect x="0" width="1200" y="0" height="579"/></clipPath><clipPath id="7f576b30ff"><path d="M 0 0 L 1200 0 L 1200 472 L 0 472 Z M 0 0 "/></clipPath><clipPath id="ce62c559db"><path d="M -188.695312 -916.332031 L 1758.046875 -21.023438 L 1250.695312 1082.152344 L -696.046875 186.84375 Z M -188.695312 -916.332031 "/></clipPath><clipPath id="2542feb0ff"><path d="M -696.132812 187.035156 L 1250.609375 1082.34375 L 1757.960938 -20.832031 L -188.78125 -916.140625 Z M -696.132812 187.035156 "/></clipPath><clipPath id="796ed0cca7"><path d="M 74 0 L 1200 0 L 1200 471.839844 L 74 471.839844 Z M 74 0 "/></clipPath><clipPath id="b15f15870c"><path d="M -188.695312 -916.332031 L 1758.046875 -21.023438 L 1250.695312 1082.152344 L -696.046875 186.84375 Z M -188.695312 -916.332031 "/></clipPath><clipPath id="6fff317cb7"><path d="M -696.132812 187.035156 L 1250.609375 1082.34375 L 1757.960938 -20.832031 L -188.78125 -916.140625 Z M -696.132812 187.035156 "/></clipPath><clipPath id="2ebaca49cc"><rect x="0" width="1200" y="0" height="472"/></clipPath></defs><g id="99fa9ab872"><rect x="0" width="1200" y="0" height="599.999999" style="fill:#ffffff;fill-opacity:1;stroke:none;"/><rect x="0" width="1200" y="0" height="599.999999" style="fill:#262f3f;fill-opacity:1;stroke:none;"/><g clip-rule="nonzero" clip-path="url(#bca3bbeba6)"><g clip-rule="nonzero" clip-path="url(#a5ca0af381)"><g clip-rule="nonzero" clip-path="url(#3260c4090d)"><path style=" stroke:none;fill-rule:nonzero;fill:#313c51;fill-opacity:1;" d="M -506.828125 -224.214844 C 1.390625 507.828125 942.746094 204.980469 1228.714844 141.757812 C 1514.679688 78.53125 1702.273438 98.789062 1702.273438 98.789062 L 1757.40625 -21.085938 L -188.640625 -916.074219 Z M -506.828125 -224.214844 "/></g></g></g><g clip-rule="nonzero" clip-path="url(#ef928d1aac)"><g clip-rule="nonzero" clip-path="url(#04a3ebb250)"><g clip-rule="nonzero" clip-path="url(#4eff774eb8)"><path style=" stroke:none;fill-rule:nonzero;fill:#39465e;fill-opacity:1;" d="M 491.074219 -603.472656 C 336.277344 -266.882812 774.574219 0.796875 1060.796875 132.433594 C 1347.023438 264.066406 1362.824219 836.886719 1342.453125 881.179688 L 1757.40625 -21.085938 Z M 491.074219 -603.472656 "/></g></g></g><g clip-rule="nonzero" clip-path="url(#c1da3ffb74)"><g clip-rule="nonzero" clip-path="url(#adaed1d038)"><g clip-rule="nonzero" clip-path="url(#62296263d2)"><g mask="url(#d352d40630)" transform="matrix(1,0,0,1,0,-0.000000000000034788)"><g clip-path="url(#ccdabf4ecc)"><g clip-rule="nonzero" clip-path="url(#acfb40c14e)"><g clip-rule="nonzero" clip-path="url(#ff857f3a68)"><g clip-rule="nonzero" clip-path="url(#3c95b0a645)"><path style=" stroke:none;fill-rule:nonzero;fill:#262f40;fill-opacity:1;" d="M -415.003906 -423.878906 C 42.867188 -636.550781 97.859375 -96.253906 420.417969 88.023438 C 742.902344 272.261719 1658.386719 194.226562 1658.386719 194.226562 L 1757.40625 -21.085938 L -188.640625 -916.074219 Z M -415.003906 -423.878906 "/></g></g></g></g><mask id="d352d40630"><g filter="url(#0e3525c84a)"><rect x="0" width="1200" y="0" height="599.999999" style="fill:#000000;fill-opacity:0.42;stroke:none;"/></g></mask></g></g></g></g><g clip-rule="nonzero" clip-path="url(#7f576b30ff)"><g clip-rule="nonzero" clip-path="url(#ce62c559db)"><g clip-rule="nonzero" clip-path="url(#2542feb0ff)"><g mask="url(#5cecc6c185)" transform="matrix(1,0,0,1,0,-0.000000000000034788)"><g clip-path="url(#2ebaca49cc)"><g clip-rule="nonzero" clip-path="url(#796ed0cca7)"><g clip-rule="nonzero" clip-path="url(#b15f15870c)"><g clip-rule="nonzero" clip-path="url(#6fff317cb7)"><path style=" stroke:none;fill-rule:nonzero;fill:#262f40;fill-opacity:1;" d="M 225.320312 -725.691406 C 225.320312 -725.691406 -25.84375 -502.738281 120.070312 -227.59375 C 265.980469 47.550781 1056.570312 -100.75 1263.109375 6.683594 C 1469.679688 114.042969 1531.046875 471.109375 1531.046875 471.109375 L 1757.40625 -21.085938 Z M 225.320312 -725.691406 "/></g></g></g></g><mask id="5cecc6c185"><g filter="url(#0e3525c84a)"><rect x="0" width="1200" y="0" height="599.999999" style="fill:#000000;fill-opacity:0.42;stroke:none;"/></g></mask></g></g></g></g></g></svg>